<svg viewBox="0 0 24 24" id="icon-google-colored">
    <g clip-rule="evenodd" fill-rule="evenodd">
        <path d="m20.64 12.2047c0-.6382-.0573-1.2518-.1636-1.8409h-8.4764v3.4813h4.8436c-.2086 1.125-.8427 2.0782-1.7959 2.7164v2.2582h2.9087c1.7018-1.5668 2.6836-3.8741 2.6836-6.615z" fill="#4285f4"></path>
        <path d="m12 21c2.43 0 4.4673-.8059 5.9564-2.1805l-2.9087-2.2582c-.8059.54-1.8368.8591-3.0477.8591-2.34409 0-4.32818-1.5832-5.03591-3.7104h-3.00681v2.3318c1.4809 2.9413 4.52454 4.9582 8.04272 4.9582z" fill="#34a853"></path>
        <path d="m6.96409 13.7101c-.18-.54-.28227-1.1168-.28227-1.71s.10227-1.17.28227-1.71v-2.33185h-3.00682c-.60954 1.215-.95727 2.58955-.95727 4.04185 0 1.4522.34773 2.8268.95727 4.0418z" fill="#fbbc05"></path>
        <path d="m12 6.57955c1.3214 0 2.5077.45409 3.4405 1.3459l2.5813-2.58136c-1.5586-1.45227-3.5959-2.34409-6.0218-2.34409-3.51818 0-6.56182 2.01682-8.04272 4.95818l3.00681 2.33182c.70773-2.12727 2.69182-3.71045 5.03591-3.71045z" fill="#ea4335"></path>
    </g>
</svg>