<svg viewBox="0 0 24 24" id="icon-bonus-premium">
    <circle cx="12" cy="12" fill="#471a7b" r="11"></circle>
    <path clip-rule="evenodd" d="m8 6h7.1765v2h-5.1765v3h3.5294v1c0-1 .0005-1 .001-1h.0011.0023.0054l.0136.0002c.0103.0002.023.0005.0381.001.03.001.0694.0029.1168.0063.0944.0068.2227.02.374.0455.298.0502.7103.1526 1.1345.3672.4283.2167.8854.5569 1.2328 1.0843.3512.5331.551 1.1979.551 1.9955s-.1998 1.4624-.551 1.9955c-.3474.5274-.8045.8676-1.2328 1.0843-.4242.2146-.8365.317-1.1345.3672-.1513.0255-.2796.0387-.374.0455-.0474.0034-.0868.0053-.1168.0063-.0151.0005-.0278.0008-.0381.001l-.0136.0002h-.0054-.0023-.0011c-.0005 0-.001 0-.001-1v1h-5.5294zm5.5221 10h.0013c.0062-.0002.0199-.0008.0401-.0023.0406-.0029.1053-.0093.1856-.0228.1653-.0279.3707-.0818.5641-.1797.1893-.0958.3499-.2243.4657-.4.112-.1701.2211-.4428.2211-.8952s-.1091-.7251-.2211-.8952c-.1158-.1757-.2764-.3042-.4657-.4-.1934-.0979-.3988-.1518-.5641-.1797-.0803-.0135-.145-.0199-.1856-.0228-.0202-.0015-.0339-.0021-.0401-.0023-.0004 0-.0009 0-.0012 0h-3.5222v3z" fill="#f2e312" fill-rule="evenodd"></path>
</svg>