<?xml version="1.0" encoding="UTF-8" standalone="no"?><!-- Generator: Gravit.io --><svg xmlns="http://www.w3.org/2000/svg" xmlns:xlink="http://www.w3.org/1999/xlink" style="isolation:isolate" viewBox="388 285 494 446" width="494pt" height="446pt"><defs><clipPath id="_clipPath_v2ssgZJVnNc2Ny9Bs1wiybbUUA6Xb2am"><rect x="388" y="285" width="494" height="446"/></clipPath></defs><g clip-path="url(#_clipPath_v2ssgZJVnNc2Ny9Bs1wiybbUUA6Xb2am)"><mask id="_mask_2E8UhuR5vOIqjBPEE0mlCfZftVp3Lnp3"><ellipse vector-effect="non-scaling-stroke" cx="634.9999999999998" cy="508.0000000000001" rx="246.99999999999997" ry="222.99999999999991" fill="white" stroke="none"/></mask><ellipse vector-effect="non-scaling-stroke" cx="634.9999999999998" cy="508.0000000000001" rx="246.99999999999997" ry="222.99999999999991" fill="rgb(0,160,3)"/><ellipse vector-effect="non-scaling-stroke" cx="634.9999999999998" cy="508.0000000000001" rx="246.99999999999997" ry="222.99999999999991" fill="rgb(0,160,3)" mask="url(#_mask_2E8UhuR5vOIqjBPEE0mlCfZftVp3Lnp3)" stroke-width="2" stroke="rgb(0,0,0)" stroke-linejoin="miter" stroke-linecap="square" stroke-miterlimit="3"/><mask id="_mask_7FPjstCN1WinXUBxihCPthOglodUiYMn"><path d=" M 511.928 444.482 C 524.959 410.536 554.154 390.121 577.083 398.923 C 600.011 407.725 608.048 442.431 595.017 476.377 C 581.986 510.324 552.791 530.738 529.862 521.936 C 506.933 513.135 498.897 478.429 511.928 444.482 Z " fill="white" stroke="none"/></mask><path d=" M 511.928 444.482 C 524.959 410.536 554.154 390.121 577.083 398.923 C 600.011 407.725 608.048 442.431 595.017 476.377 C 581.986 510.324 552.791 530.738 529.862 521.936 C 506.933 513.135 498.897 478.429 511.928 444.482 Z " fill="rgb(0,0,0)"/><path d=" M 511.928 444.482 C 524.959 410.536 554.154 390.121 577.083 398.923 C 600.011 407.725 608.048 442.431 595.017 476.377 C 581.986 510.324 552.791 530.738 529.862 521.936 C 506.933 513.135 498.897 478.429 511.928 444.482 Z " fill="rgb(0,0,0)" mask="url(#_mask_7FPjstCN1WinXUBxihCPthOglodUiYMn)" vector-effect="non-scaling-stroke" stroke-width="2" stroke="rgb(0,0,0)" stroke-linejoin="miter" stroke-linecap="square" stroke-miterlimit="3"/><mask id="_mask_XPxNdz9IwescbxnWo5LubIztFkxKvvBM"><path d=" M 688.957 468.155 C 676.26 435.081 684.568 401.083 707.497 392.281 C 730.426 383.48 759.349 403.186 772.045 436.26 C 784.741 469.335 776.433 503.333 753.505 512.135 C 730.576 520.936 701.653 501.23 688.957 468.155 Z " fill="white" stroke="none"/></mask><path d=" M 688.957 468.155 C 676.26 435.081 684.568 401.083 707.497 392.281 C 730.426 383.48 759.349 403.186 772.045 436.26 C 784.741 469.335 776.433 503.333 753.505 512.135 C 730.576 520.936 701.653 501.23 688.957 468.155 Z " fill="rgb(0,0,0)"/><path d=" M 688.957 468.155 C 676.26 435.081 684.568 401.083 707.497 392.281 C 730.426 383.48 759.349 403.186 772.045 436.26 C 784.741 469.335 776.433 503.333 753.505 512.135 C 730.576 520.936 701.653 501.23 688.957 468.155 Z " fill="rgb(0,0,0)" mask="url(#_mask_XPxNdz9IwescbxnWo5LubIztFkxKvvBM)" vector-effect="non-scaling-stroke" stroke-width="2" stroke="rgb(0,0,0)" stroke-linejoin="miter" stroke-linecap="square" stroke-miterlimit="3"/><path d=" M 466.834 393.92 C 505.587 329.888 551.929 320.064 602.318 367.574" fill="rgb(0,0,0)" vector-effect="non-scaling-stroke" stroke-width="1" stroke="rgb(0,0,0)" stroke-linejoin="miter" stroke-linecap="square" stroke-miterlimit="3"/><path d=" M 466.509 394.877 C 512.761 375.183 557.7 366.653 601.08 369.118" fill="rgb(0,160,3)" vector-effect="non-scaling-stroke" stroke-width="1" stroke="rgb(0,0,0)" stroke-linejoin="miter" stroke-linecap="square" stroke-miterlimit="3"/><path d=" M 679.414 363.795 C 726.814 322.019 765.149 328.019 794.396 381.756" fill="rgb(0,0,0)" vector-effect="non-scaling-stroke" stroke-width="1" stroke="rgb(0,0,0)" stroke-linejoin="miter" stroke-linecap="square" stroke-miterlimit="3"/><path d=" M 677.246 363.559 C 701.637 359.804 726.244 360.868 751.061 366.743 C 765.889 370.254 780.793 375.483 795.77 382.427" fill="rgb(0,160,3)" vector-effect="non-scaling-stroke" stroke-width="1" stroke="rgb(0,0,0)" stroke-linejoin="miter" stroke-linecap="square" stroke-miterlimit="3"/><path d=" M 506 639 C 594.269 486.126 689.29 482.933 789 634" fill="rgb(0,0,0)" vector-effect="non-scaling-stroke" stroke-width="1" stroke="rgb(0,0,0)" stroke-linejoin="miter" stroke-linecap="square" stroke-miterlimit="3"/><path d=" M 508 640 C 554.953 615.269 592.667 601.907 621.111 599.885 C 677.679 592.789 733.645 605.496 789 638" fill="rgb(0,160,3)" vector-effect="non-scaling-stroke" stroke-width="1" stroke="rgb(0,0,0)" stroke-linejoin="miter" stroke-linecap="square" stroke-miterlimit="3"/></g></svg>