<svg viewBox="0 0 24 24" id="icon-telegram">
    <path clip-rule="evenodd" d="m2.3749 11.3184c5.36869-2.3991 8.9487-3.98073 10.7399-4.7449 5.1144-2.18184 6.1771-2.56085 6.8698-2.57337.1523-.00275.493.03598.7136.21961.1863.15506.2376.36452.2621.51154.0245.14701.0551.48191.0308.74359-.2771 2.98678-1.4764 10.23493-2.0865 13.58013-.2581 1.4155-.7664 1.8901-1.2585 1.9366-1.0695.1009-1.8816-.7249-2.9174-1.4214-1.6209-1.0897-2.5366-1.7681-4.1099-2.8315-1.81827-1.229-.63957-1.9044.3967-3.0083.2711-.2889 4.9832-4.68493 5.0744-5.08372.0114-.04987.022-.23579-.0857-.33395-.1077-.09817-.2666-.0646-.3813-.0379-.1625.03784-2.7519 1.79327-7.76804 5.26617-.73498.5177-1.4007.7699-1.99716.7567-.65755-.0146-1.92242-.3814-2.86272-.6949-1.15332-.3845-2.069953-.5878-1.99013-1.2408.04157-.3402.49825-.688 1.37005-1.0436z" fill-rule="evenodd"></path>
</svg>