<svg viewBox="0 0 24 24" id="icon-twitter">
    <path d="m22 5.89987c-.7489.3263-1.5432.54067-2.3566.63602.8572-.50444 1.4984-1.29865 1.804-2.23431-.8055.4702-1.6866.80158-2.6055.97984-1.2699-1.33746-3.2951-1.66713-4.9351-.80333-1.6399.86379-2.4843 2.705-2.0575 4.48655-3.29949-.16296-6.37356-1.6966-8.45725-4.21928-1.09105 1.84483-.53504 4.20655 1.26926 5.39134-.65171-.0197-1.28909-.19302-1.85868-.50529v.05054c.00012 1.92235 1.3771 3.57835 3.29203 3.95895-.60424.1618-1.23811.1855-1.85309.0692.53743 1.6449 2.07787 2.7718 3.83345 2.8044-1.45347 1.1224-3.24841 1.731-5.09601 1.7279-.32717.0003-.65407-.0184-.97901-.056 1.87639 1.1863 4.06019 1.8159 6.29047 1.8136 7.54743 0 11.67443-6.1526 11.67443-11.48904 0-.17466-.0044-.34931-.0122-.52287.8036-.57021 1.497-1.27745 2.0473-2.08822z"></path>
</svg>