<svg viewBox="0 0 24 24" id="icon-viber">
    <g>
        <path d="m19.4936 13.21c-.479 4.0643-3.2999 4.3206-3.8199 4.4966-.222.0751-2.2789.6144-4.8659.4353l-2.80389 3.1988-.003-3.6856-.022-.0062c-3.7669-1.1023-3.6399-5.2355-3.5979-7.4051.042-2.16953.42899-3.94696 1.57896-5.14186 2.06394-1.96989 6.31583-1.67553 6.31583-1.67553 3.5909.01646 5.3129 1.15579 5.7108 1.53762 1.326 1.19593 2.001 4.05608 1.507 8.24597zm-.526-9.26076c-.472-.45697-2.3779-1.91534-6.6228-1.9349 0 0-5.00587-.31802-7.4468 2.04091-1.35797 1.43161-1.83595 3.52604-1.88695 6.12375-.05 2.5977-.116 7.4648 4.33688 8.7852l.004.0011-.002 2.0141s-.028.8162.48099.9819c.61598.2017.97797-.4179 1.56695-1.0858.323-.3664.76903-.9047 1.10493-1.3164 3.046.2686 5.3879-.3479 5.6539-.4384.615-.211 4.0949-.6803 4.6609-5.5464.5829-5.02042-.284-8.19344-1.85-9.62506z"></path>
        <path d="m16.2517 13.8168c-.2782-.2451-.5612-.4843-.849-.7173-.262-.2028-.68-.4755-.914-.6145-.419-.2459-.8479-.0916-1.0249.1503l-.368.4868c-.188.247-.479.2048-.555.1894-.543-.14-1.121-.4899-1.711-1.0786-.598-.5939-.95894-1.2145-1.08894-1.8598l-.009-.0422c-.03959-.1973.00126-.40267.113-.56809l.02-.01647c.24804-.23774.70794-.52695.76994-.80174.181-.47858-.6039-1.47485-.71594-1.65084 0 0-.57099-.77807-.77398-.92628-.219-.18834-.55899-.29538-.90098-.07822l-.017.01338c-.98397.68545-1.33996 1.0786-1.24296 1.66628l.05099.23671c.49899 1.61893 1.46196 3.34487 2.89893 4.88147 1.42094 1.5181 2.95894 2.4269 4.47384 3.0568.394.1348.802.0185 1.221-.35l.007-.0051c.321-.3088.575-.6392.765-.9932l.002-.0072c.183-.3767.12-.7307-.151-.9716zm-2.359-3.5456c-.061-.0005-.1108-.0504-.1129-.1132-.02-.41989-.13-.741-.327-.9561-.196-.21305-.49-.33244-.872-.35405-.0629-.00494-.1105-.06072-.107-.12556.001-.03131.0142-.06089.0365-.08216.0224-.02126.0521-.03244.0825-.03105.442.0247.786.16879 1.023.42712.2359.2573.3679.62987.3899 1.1095.0035.0652-.0446.1211-.108.1255z"></path>
        <path d="m15.0135 10.6674h-.003c-.0632-.0028-.1123-.0575-.11-.1225.017-.80584-.211-1.48615-.68-2.02545-.2339-.26993-.5214-.48507-.843-.6309-.3588-.15801-.7414-.25131-1.131-.27582-.0629-.006-.1096-.06274-.1049-.12762.0037-.065.0578-.11467.1209-.11116.904.06999 1.618.40139 2.125.98495.509.58458.758 1.32252.739 2.1912 0 .0644-.0505.1167-.113.1173z"></path>
        <path d="m16.1613 11.1404c-.0302-.0002-.0591-.0129-.0803-.0351s-.0329-.0521-.0327-.0832c-.005-.7122-.1089-1.35651-.3109-1.91537-.1935-.5442-.4996-1.03864-.897-1.44911-.3816-.39642-.8365-.71-1.338-.92216-.5199-.21127-1.074-.31885-1.6329-.317-.0632-.00168-.1132-.05544-.112-.12041 0-.06458.0502-.11724.113-.11836 1.2399.00926 2.2929.44873 3.1289 1.30605.419.43124.739.9479.951 1.53557.2109.58458.3199 1.25769.3259 1.99769.0012.065-.0488.1187-.112.1204z"></path>
    </g>
</svg>